<svg id="Layer_1" data-name="Layer 1" xmlns="http://www.w3.org/2000/svg" viewBox="0 0 643.26 643.27"><rect width="643.26" height="643.27" rx="100" fill="#111111"/>
  
  <path fill="#c9a050" d="M372.39,186.18c0,11.33,9.19,20.52,20.52,20.52s20.52-9.18,20.52-20.52-9.19-20.52-20.52-20.52-20.52,9.19-20.52,20.52Z"/>
  <path fill="#c9a050" d="M351.06,332.53c9.14,7.86,17.46,16.65,25.01,26.09,15.09,18.91,27.05,40.2,37.84,62.05l7.07-2.88c-6.23-19.33-13.35-38.49-22.36-56.88-8.99-18.37-19.97-35.97-33.53-51.53-13.51-15.58-29.64-28.96-47.52-39.3-15.78-9.19-32.78-16.03-50.23-21.09l25.44-28.21,30.06-33.56,3.08-3.43-3.62-2.84c-11.49-9.04-24.51-16.36-38.51-20.99-9.81-3.28-20.04-5.17-30.32-5.86,1.47-1.03,2.94-2.04,4.4-3.1,2.49-1.79,4.96-3.64,7.4-5.56,2.21-1.75,4.38-3.52,6.55-5.63,23.25-9.09,48.25-13.61,73.29-13.93,25.31-.34,50.66,3.58,74.88,11.05,24.21,7.53,47.31,18.83,67.89,33.7,15.78,11.39,30.05,24.95,42.02,40.31-7.64-5.68-15.59-10.94-23.9-15.57-13.56-7.52-27.92-13.55-42.71-18.05l-9.35-2.85,7.84,5.78c17.92,13.21,34.63,28.06,50.47,43.78,15.82,15.75,30.91,32.26,45.45,49.24-14.05-17.39-28.56-34.44-44.13-50.55-13.25-13.74-27.23-26.83-42.07-38.92,25.43,9.63,48.95,24,69.1,42.13l13.03,11.72-9.23-14.94c-13.72-22.21-32-41.46-52.92-57.01-20.94-15.56-44.51-27.51-69.33-35.6-24.81-8.13-50.97-12.19-77.13-11.97-26.15.22-52.39,4.85-76.87,14.41l-.79.3-.63.63c-1.86,1.88-4.17,3.76-6.48,5.56-2.33,1.81-4.72,3.59-7.16,5.33-4.86,3.47-9.86,6.87-14.85,10.13l-6.34,4.14c-2.56.27-5.14.6-7.77,1.04-9.71,3.06-18.99,7.07-27.75,11.94-1.86,1.51-3.72,3.06-5.55,4.64-.32.27-.63.53-.93.8-.44.37-.87.75-1.3,1.12-.74.64-1.48,1.3-2.2,1.95-1.32,1.17-2.62,2.37-3.91,3.58-1.87,1.72-3.7,3.49-5.51,5.28-13.1,12.96-24.84,27.27-34.99,42.73-.52.78-1.02,1.55-1.52,2.33-2.59,4.04-5.07,8.14-7.46,12.33-.02.04-.03.06-.03.06.09-.02.18-.03.27-.04.93-.17,1.86-.32,2.8-.48,1.54-.24,3.11-.49,4.66-.71.25-.04.48-.07.73-.11,1.16-.15,2.32-.31,3.48-.46.97-.12,1.95-.23,2.94-.36.71-.08,1.42-.16,2.13-.25.06,0,.12,0,.18-.01.95-.1,1.9-.2,2.85-.29,1.9-.19,3.8-.35,5.71-.49.97-.08,1.92-.14,2.88-.2.41-.03.82-.06,1.23-.08.22-.01.44-.03.67-.04,1.01-.06,2.02-.11,3.04-.15,1.04-.04,2.07-.1,3.11-.12.57-.03,1.14-.04,1.73-.06,1.5-.04,3-.07,4.5-.1,1.05-.01,2.09-.01,3.14-.01,1.51,0,3.03.01,4.54.04h.11c1.19.02,2.39.06,3.58.08.55.01,1.09.04,1.62.06,3.27.12,6.53.3,9.77.53,1.08.08,2.16.16,3.23.26,1.14.1,2.26.2,3.38.31,1.12.11,2.24.22,3.36.35,2.25.25,4.47.52,6.7.83.27.03.53.07.8.11.59.08,1.18.16,1.75.25h.04c1.42.2,2.84.42,4.26.65,1.57.26,3.12.52,4.68.81.91.16,1.81.34,2.73.52,1.94.37,3.85.75,5.77,1.17.62.12,1.22.26,1.83.39.9.21,1.8.41,2.7.62,1.14.27,2.28.54,3.41.82.82.21,1.62.4,2.43.62.83.2,1.66.42,2.5.65.97.26,1.94.52,2.9.81.39.1.77.22,1.15.33l-.97,1.08,6.99,1.8c19.23,4.95,37.92,12,55.04,21.86,17.13,9.82,32.56,22.49,45.59,37.37,13.07,14.85,23.75,31.78,32.59,49.63,1.53,3.09,3,6.22,4.43,9.36-4.51-6.71-9.29-13.26-14.45-19.53-7.91-9.63-16.65-18.62-26.23-26.64-9.58-8.02-20-15.04-31.03-20.89l-5.65-2.99,1.31,6.22c5,23.71,4.06,48.66-2.71,72.01-6.76,23.34-19.11,45.11-35.79,62.95-16.68,17.82-37.82,31.61-61.18,39.16-23.34,7.6-48.71,8.83-72.92,3.87,24.04,5.67,49.68,5.3,73.52-1.97,23.86-7.13,45.73-20.69,63.21-38.55,17.54-17.83,30.67-40.02,37.92-64.06,6.7-21.97,8.33-45.47,4.85-68.25,8.58,5.11,16.73,10.92,24.29,17.43Z"/>
  <path fill="#c9a050" d="M319.69,13.88C151.31,13.88,14.33,150.86,14.33,319.24s136.98,305.36,305.36,305.36,305.36-136.98,305.36-305.36S488.07,13.88,319.69,13.88ZM319.69,615.66c-163.45,0-296.43-132.98-296.43-296.43S156.24,22.81,319.69,22.81s296.43,132.98,296.43,296.43-132.98,296.43-296.43,296.43Z"/>
  <path fill="#c9a050" d="M127.2,480.79c-.18-.22-.44-.25-.66-.07l-9.33,7.63c-.14.12-.28.1-.39-.04l-1.25-1.53c-3.55-4.34-7.56-5.01-12.92-.62-5.47,4.47-5.53,8.41-1.95,12.78l3.55,4.34c.18.22.45.25.66.07l24.04-19.68c.22-.18.25-.44.07-.66l-1.82-2.22ZM114.04,490.95l-8.96,7.33c-.14.12-.28.11-.4-.04l-1.25-1.53c-2.2-2.69-1.87-4.74,1.63-7.6,3.54-2.89,5.57-2.79,7.77-.09l1.26,1.53c.12.14.1.28-.05.4Z"/>
  <path fill="#c9a050" d="M98.34,438.29l-5.49-10.78c-.13-.25-.38-.33-.63-.21l-2.31,1.17c-.25.13-.34.38-.2.63l3.84,7.55c.09.17.05.3-.12.38l-9.18,4.67c-.17.09-.29.05-.38-.12l-3.33-6.54c-.13-.25-.38-.34-.63-.21l-2.31,1.18c-.25.13-.33.38-.2.63l3.33,6.54c.08.17.05.29-.12.38l-8.89,4.53c-.17.09-.3.04-.38-.12l-3.84-7.55c-.13-.25-.38-.34-.63-.2l-2.31,1.17c-.25.13-.33.38-.2.63l5.49,10.78c.13.25.38.34.63.21l27.68-14.09c.26-.13.34-.38.21-.63Z"/>
  <path fill="#c9a050" d="M78.48,389.76l-.73-2.78c-.07-.27-.3-.41-.58-.34l-12.48,3.28c-.18.05-.3-.02-.34-.2l-.49-1.87c-.11-.41-.23-.86-.38-1.26l11.92-7.27c.21-.15.26-.31.19-.59l-.82-3.1c-.06-.23-.31-.26-.52-.11l-12.57,7.93c-1.86-2.09-4.73-2.8-8.87-1.71-6.56,1.72-8.16,5.26-6.73,10.73l1.42,5.42c.07.27.3.41.57.34l30.07-7.9c.27-.08.41-.3.34-.58ZM60.82,390.94l-10.48,2.75c-.18.05-.3-.02-.34-.2l-.51-1.96c-.86-3.28.1-4.99,4.29-6.09,4.24-1.11,5.9,0,6.73,3.2l.51,1.96c.05.18-.02.3-.2.35Z"/>
  <path fill="#c9a050" d="M53.45,331.88l.67-1.96c.88-2.58,2.22-3.34,5.89-3.5,4.33-.18,5.55.9,5.65,3.35.1,2.45-1.26,3.78-5.2,4.13-.28.01-.46.21-.4.54l.63,2.75c.06.28.25.37.53.36,5.5-.46,8.12-3.02,7.92-7.87-.22-5.41-3.32-7.31-9.77-7.04-5.31.22-7.37,1.77-8.85,5.93l-.67,1.96c-.88,2.63-1.98,3.43-5.27,3.57-3.25.13-4.7-.94-4.8-3.29-.1-2.45,1.41-3.54,4.55-3.77.29,0,.46-.26.36-.53l-.53-2.62c-.06-.28-.25-.42-.54-.4-4.97.44-7.52,2.76-7.32,7.56.2,4.8,3.12,7.04,8.57,6.81,4.94-.2,7.05-1.51,8.57-5.96Z"/>
  <path fill="#c9a050" d="M43.84,277.62c1.31.71,2.44,1.05,11.39,2.63,8.95,1.58,10.13,1.64,11.6,1.42,3.19-.44,5.27-2.51,5.9-6.08.63-3.57-.62-6.27-3.46-7.73-1.31-.71-2.45-1.05-11.39-2.63-8.95-1.57-10.13-1.64-11.6-1.42-3.18.4-5.27,2.51-5.9,6.09-.63,3.57.62,6.22,3.46,7.73ZM43.9,270.51c.3-1.67,1.3-2.74,2.81-2.94.98-.12,1.69-.09,10.49,1.46,8.81,1.55,9.49,1.77,10.36,2.21,1.35.72,1.93,2.06,1.64,3.73-.29,1.67-1.29,2.69-2.81,2.9-.98.16-1.7.14-10.5-1.42-8.81-1.55-9.49-1.77-10.36-2.25-1.36-.72-1.94-2.02-1.65-3.68Z"/>
  <path fill="#c9a050" d="M55.87,217.15l28.65,12.01c.26.11.51,0,.62-.26l.96-2.3c.11-.26,0-.51-.25-.62l-22.14-9.28.09-.22,24.96,2.55c.34.04.56-.12.71-.46l1.29-3.09c.11-.26,0-.5-.25-.61l-28.66-12.01c-.26-.11-.5,0-.61.25l-.97,2.3c-.11.26,0,.51.25.62l22.14,9.28-.07.17-24.91-2.68c-.34-.04-.56.12-.71.47l-1.36,3.26c-.11.26,0,.51.25.62Z"/>
  <path fill="#c9a050" d="M109.36,180.8c.21.2.47.16.63-.07l1.63-2.3c.17-.23.09-.45-.11-.66l-4.9-5.21,4.11-5.8,6.54,2.91c.25.12.49.12.68-.15l1.63-2.3c.17-.23.12-.49-.14-.62l-29.22-12.49c-.26-.13-.52-.08-.69.15l-1.63,2.3c-.16.23-.09.46.09.7l21.37,23.54ZM94.72,159.55l12.94,5.84-3.35,4.72-9.67-10.44.08-.11Z"/>
  <path fill="#c9a050" d="M145.52,137.51c.19.21.46.22.67.03l8.84-8.13c.21-.19.22-.46.03-.66l-1.75-1.91c-.19-.21-.46-.22-.67-.03l-6.16,5.67c-.14.13-.27.12-.4-.02l-18.77-20.42c-.19-.21-.46-.22-.66-.03l-2.11,1.95c-.21.19-.22.46-.03.66l21.03,22.88Z"/>
  <path fill="#c9a050" d="M214.03,59.64c.1.26.34.38.61.27l4.94-1.85c.18-.07.3-.01.37.16l9.72,25.97c.1.26.34.38.6.28l2.69-1.01c.26-.1.38-.34.28-.61l-9.72-25.97c-.07-.18,0-.3.16-.36l4.94-1.85c.26-.1.38-.34.28-.6l-.91-2.43c-.1-.26-.34-.38-.6-.28l-13.98,5.23c-.26.1-.38.34-.28.61l.91,2.43Z"/>
  <path fill="#c9a050" d="M277.1,71.61l2.85-.41c.28-.04.44-.25.4-.53l-1.85-12.77c-.02-.19.06-.29.24-.32l1.91-.27c.42-.06.89-.13,1.3-.24l5.88,12.66c.13.22.28.29.56.25l3.17-.46c.23-.03.29-.28.16-.5l-6.45-13.38c2.29-1.62,3.32-4.38,2.7-8.62-.97-6.71-4.31-8.7-9.89-7.89l-5.55.8c-.28.04-.44.25-.4.53l4.45,30.76c.04.28.25.44.53.4ZM276.61,42.9l2-.29c3.35-.49,4.95.66,5.57,4.95.63,4.33-.68,5.85-3.94,6.33l-2.01.29c-.18.02-.29-.05-.32-.24l-1.55-10.72c-.03-.19.06-.3.24-.32Z"/>
  <path fill="#c9a050" d="M329.9,68.11l2.82.21c.28.02.44-.16.5-.44l1.92-6.89,7.09.51.9,7.1c.02.28.15.48.48.51l2.82.21c.28.02.48-.15.46-.44l-4.45-31.48c-.03-.28-.2-.49-.48-.51l-2.82-.21c-.28-.02-.44.16-.55.43l-9.07,30.48c-.07.28.11.48.39.5ZM339.97,44.08h.14s1.71,14.1,1.71,14.1l-5.78-.42,3.93-13.68Z"/>
  <path fill="#c9a050" d="M385.7,76.8l2.77.77c.27.08.5-.06.58-.33l8.29-29.93c.08-.27-.05-.5-.32-.58l-2.77-.77c-.27-.08-.5.06-.58.33l-8.29,29.93c-.08.27.06.51.33.58Z"/>
  <path fill="#c9a050" d="M427.62,92.22l2.22,1.14c.25.13.5.05.63-.2l10.94-21.37.22.11-4.45,24.69c-.06.34.08.57.42.74l2.98,1.52c.25.13.5.05.63-.21l14.16-27.66c.13-.25.05-.5-.2-.63l-2.22-1.14c-.25-.13-.5-.04-.63.21l-10.94,21.37-.17-.08,4.57-24.63c.07-.34-.08-.57-.41-.74l-3.15-1.61c-.25-.13-.5-.05-.63.2l-14.16,27.66c-.13.25-.05.5.21.63Z"/>
  <path fill="#c9a050" d="M484.56,129.68c.21.18.48.16.66-.06l1.67-1.98c.18-.22.16-.48-.06-.67l-6.47-5.47c-.14-.12-.16-.26-.03-.4l6.66-7.87c.12-.14.26-.15.4-.04l5.61,4.75c.22.18.48.16.66-.06l1.67-1.98c.19-.22.16-.48-.06-.66l-5.61-4.75c-.14-.12-.16-.26-.03-.4l6.45-7.62c.12-.14.25-.15.4-.03l6.47,5.47c.22.18.48.16.66-.06l1.67-1.98c.18-.22.16-.48-.05-.66l-9.24-7.82c-.22-.18-.48-.16-.66.06l-20.08,23.73c-.18.22-.16.48.05.66l9.24,7.82Z"/>
  <path fill="#c9a050" d="M514.73,160.77c.18.22.44.25.66.08l10.12-7.99c.15-.12.28-.1.4.05l1.2,1.51c.26.33.55.7.85,1.01l-8.01,11.42c-.12.22-.11.39.06.61l1.98,2.51c.15.18.39.11.52-.11l8.34-12.29c2.54,1.17,5.45.67,8.81-1.98,5.32-4.2,5.37-8.08,1.87-12.51l-3.47-4.39c-.18-.22-.44-.25-.66-.08l-24.38,19.25c-.22.17-.25.44-.07.66l1.78,2.25ZM528.65,150.37l8.49-6.7c.15-.12.28-.1.4.05l1.26,1.58c2.1,2.66,1.9,4.62-1.5,7.3-3.44,2.71-5.4,2.35-7.44-.24l-1.25-1.59c-.12-.15-.1-.28.04-.4Z"/>
  <path fill="#c9a050" d="M296.18,497.52c-24.07-4.52-41.6,6.78-45.39,26.99-2.47,13.16,5.07,22.83,21.64,28.42l4.53,1.54c5.67,2.03,7.05,4.22,6.6,6.61-.75,3.99-5.66,5.96-12.97,4.58-7.98-1.5-14.72-6.62-18.13-11.93-.3-.61-1.21-.92-2-.38l-18.87,12.56c-.92.51-1.12,1.58-.72,2.34,4.29,7.96,17.95,17.27,32.97,20.09,25.52,4.79,44.64-5.39,48.75-27.32,2.52-13.42-5.18-22.99-21.73-28.71l-4.4-1.51c-5.94-2.08-7.21-4.1-6.76-6.5.62-3.32,4.68-5.18,10.13-4.15,6.65,1.25,11.94,4.58,16.13,9.36.46.5,1.38.68,2.18.14l17.24-13.41c.97-.78,1.12-1.58.55-2.24-6.25-7.78-16.77-14.01-29.8-16.46Z"/>
  <path fill="#c9a050" d="M391.13,489.29c-.21-.79-.87-1.17-1.78-.93l-25.78,6.75c-.92.24-1.3.9-1.36,1.75l-22.65,98.23c-.19.89.34,1.31,1.13,1.1l26.31-6.89c.91-.24,1.3-.9,1.49-1.79l2.18-13.57,25.38-6.65,4.37,11.86c.34.75.99,1.14,1.91.9l24.86-6.51c.66-.17.91-.8.57-1.55l-36.62-82.69ZM374.78,549.65l4.65-27.64.26-.07,8.71,24.15-13.61,3.56Z"/>
  <path fill="#c9a050" d="M486.64,473.83l-.07-.29c4.11-10.22,2.37-20.44-4.88-29-7.6-8.98-18.31-9.49-32.04,2.13l-29.11,24.64c-.52.44-.58,1.2-.16,1.9l45.59,78.36c.42.7,1.18.77,1.7.33l29.11-24.64c16.1-13.63,19.87-32.42,7.64-46.87-5.24-6.2-11.87-8.38-17.78-6.57ZM463.04,483l-3.51,2.97c-.31.26-.69.23-.94-.27l-7.81-13.42c-.25-.5-.22-.88.2-1.23l3.41-2.89c4.34-3.67,7.35-4.09,10.32-.58,4.72,5.57,3.29,11.21-1.66,15.41ZM482.57,513.61l-4.54,3.84c-.31.26-.69.23-.94-.27l-8.91-15.13c-.25-.5-.22-.88.2-1.23l4.54-3.85c4.13-3.49,7.47-3.31,10.27,0,5.25,6.19,4.55,12.28-.62,16.65Z"/>
  <path fill="#c9a050" d="M556.77,452.65l-68.1-59.84c-.62-.54-1.36-.35-1.79.34l-12.77,21.04c-.42.7-.24,1.44.38,1.98l68.1,59.84c.62.54,1.37.36,1.79-.34l12.77-21.04c.42-.7.24-1.44-.38-1.98Z"/>
  <path fill="#c9a050" d="M478.06,305.4l-4.09,20.97c-.23,1.19.12,2.23.76,3.18l14.02,20.65c.56.66,1.27.53,1.43-.27l3.42-17.52c.26-1.33.04-2.34-.68-3.58l-13.43-23.7c-.53-.79-1.27-.53-1.43.27Z"/>
  <path fill="#c9a050" d="M594.29,331.26l-90.39-2.9c-.8-.16-1.43.27-1.61,1.2l-5.11,26.15c-.18.93.25,1.56.99,1.98l78.65,63.03c.72.56,1.33.26,1.49-.54l5.21-26.68c.18-.93-.25-1.57-.97-2.12l-11.28-7.85,5.03-25.75,12.58,1.21c.82.02,1.46-.4,1.64-1.33l4.93-25.22c.13-.66-.33-1.16-1.15-1.19ZM551.18,369.28l-22.89-16.18.05-.26,25.53,2.64-2.69,13.81Z"/>
  <path fill="#c9a050" d="M321.63,0C144.28,0,0,144.29,0,321.63s144.28,321.63,321.63,321.63,321.63-144.29,321.63-321.63S498.98,0,321.63,0ZM321.63,637.57C147.42,637.57,5.69,495.84,5.69,321.63S147.42,5.69,321.63,5.69s315.94,141.73,315.94,315.94-141.73,315.94-315.94,315.94Z"/>
  <path fill="#c9a050" d="M220.42,466.02c9.5-4.17,18.57-9.41,26.96-15.57,3.67-2.7,7.27-5.62,10.68-8.66l.06-.06h.02c.09-.09.18-.17.27-.24,7.49-6.71,14.3-14.25,20.25-22.42,13.93-19.15,22.94-41.65,26.05-65.09h0s.07-.53.07-.53c.72-5.47,1.12-11.2,1.19-17.04v-1.47c0-5.86-.35-11.67-1.03-17.26-.97-8-2.6-15.87-4.83-23.41-.09-.29-.18-.58-.27-.86-.07-.23-.14-.47-.22-.7l-.02-.07-.02-.07c-.23-.75-.49-1.57-.77-2.42l-1.07-.67-2.04-1.28-.72-1.6c-1.6-.94-3.11-1.81-4.57-2.62-20.91-11.71-43.37-19.91-66.78-24.38l-3.6-.69-2.63-.43c-11.82-1.93-24.01-2.9-36.23-2.9-12.99,0-25.93,1.1-38.44,3.27h-.08s-.08.03-.08.03l-.48.07-18.82,2.76-16.23,2.38,8.12-14.25,9.38-16.47c2.25-3.96,4.68-8,7.22-11.99l.33-.52c.39-.61.81-1.25,1.25-1.89,8.31-12.67,17.91-24.74,28.53-35.89,1.73-1.83,3.55-3.67,5.27-5.38l.24-.23c1.47-1.43,3.29-3.21,5.22-5l2.49-2.29.04-.04.04-.04.7-.63,2.28-2.04h.02c3.47-3.06,6.99-5.99,10.52-8.76l1.66-1.3,2.08-.32c13.89-2.12,26.23-6.16,35.68-11.69,8.51-4.97,14.18-10.97,15.99-16.89l1.1-3.61,3.48-1.45c31.21-12.98,64.22-19.57,98.11-19.57s69.13,7,100.6,20.52c-42.92-25.18-85.7-37.92-127.5-37.92-51.66,0-102.39,19.65-150.81,58.39-7.87,6.3-15.68,13.91-24.56,23.96-7.26,8.19-14.02,17.01-20.1,26.25-24.81,37.75-37.93,81.68-37.93,127.04,0,54.1,19.04,106.72,53.6,148.15,1.93,2.31,3.92,4.62,5.96,6.89,5.56.65,11.19.97,16.76.97,20.07,0,39.45-4.06,57.6-12.06Z"/>
</svg>